<?xml version="1.0" encoding="UTF-8"?>
<!DOCTYPE svg PUBLIC "-//W3C//DTD SVG 1.1//EN" "http://www.w3.org/Graphics/SVG/1.1/DTD/svg11.dtd">
<svg xmlns="http://www.w3.org/2000/svg" version="1.1" width="1638px" height="766px" style="shape-rendering:geometricPrecision; text-rendering:geometricPrecision; image-rendering:optimizeQuality; fill-rule:evenodd; clip-rule:evenodd" xmlns:xlink="http://www.w3.org/1999/xlink">
<g><path style="opacity:0.999" fill="#fb9455" d="M 328.5,92.5 C 425.699,88.7048 505.532,123.705 568,197.5C 627.663,274.815 644.663,360.815 619,455.5C 595.114,529.043 549.614,584.876 482.5,623C 413.781,658.905 342.114,666.239 267.5,645C 194.676,621.499 139.176,576.666 101,510.5C 64.2818,441.27 56.6152,368.937 78,293.5C 110.896,196.272 176.396,132.438 274.5,102C 292.435,97.6232 310.435,94.4565 328.5,92.5 Z M 343.5,135.5 C 373.672,132.954 400.672,140.787 424.5,159C 440.076,174.405 445.576,192.905 441,214.5C 431.549,272.542 421.882,330.542 412,388.5C 407.5,405.155 397.334,416.488 381.5,422.5C 379.575,440.265 370.075,451.932 353,457.5C 352.986,506.892 352.319,556.225 351,605.5C 349.167,608.667 346.667,611.167 343.5,613C 334.5,613.667 325.5,613.667 316.5,613C 311.564,610.303 308.73,606.136 308,600.5C 307.667,546.5 307.333,492.5 307,438.5C 296.681,417.284 300.514,399.117 318.5,384C 326.272,379.631 334.606,377.298 343.5,377C 320.474,375.26 303.974,384.76 294,405.5C 293.005,409.145 292.172,412.812 291.5,416.5C 287.675,415.926 284.009,414.759 280.5,413C 261.003,399.169 252.503,380.336 255,356.5C 260.16,325.873 264.994,295.206 269.5,264.5C 304.075,267.474 338.575,271.141 373,275.5C 376.994,274.171 378.327,271.504 377,267.5C 375.174,265.926 373.007,265.093 370.5,265C 337.512,261.316 304.512,257.816 271.5,254.5C 272.092,251.873 272.425,249.206 272.5,246.5C 306.924,249.442 341.257,253.109 375.5,257.5C 379.81,256.367 381.31,253.7 380,249.5C 378.829,248.107 377.329,247.273 375.5,247C 341.853,243.235 308.187,239.735 274.5,236.5C 275.167,232.833 275.833,229.167 276.5,225.5C 309.698,228.429 342.865,231.763 376,235.5C 381.756,236.411 384.09,234.078 383,228.5C 381.829,227.107 380.329,226.273 378.5,226C 345.186,222.243 311.853,218.743 278.5,215.5C 278.724,211.821 279.058,208.154 279.5,204.5C 313.851,207.946 348.185,211.613 382.5,215.5C 387.151,214.807 388.651,212.141 387,207.5C 386.5,207 386,206.5 385.5,206C 350.832,202.1 316.165,198.267 281.5,194.5C 282.835,168.019 295.835,150.186 320.5,141C 328.135,138.445 335.802,136.612 343.5,135.5 Z"/></g>
<g><path style="opacity:0.999" fill="#28c1ca" d="M 1175.5,464.5 C 1186.69,463.525 1193.53,468.525 1196,479.5C 1196.5,504.498 1196.67,529.498 1196.5,554.5C 1207.84,554.333 1219.17,554.5 1230.5,555C 1242.92,558.421 1247.08,566.254 1243,578.5C 1240.51,581.832 1237.34,584.332 1233.5,586C 1214.5,586.667 1195.5,586.667 1176.5,586C 1169.08,583.413 1164.75,578.247 1163.5,570.5C 1164.32,538.856 1164.82,507.19 1165,475.5C 1167.36,470.645 1170.86,466.979 1175.5,464.5 Z"/></g>
<g><path style="opacity:0.998" fill="#28c1ca" d="M 705.5,465.5 C 713.092,465.379 718.592,468.713 722,475.5C 723.272,487.43 723.938,499.43 724,511.5C 727.566,517.364 732.733,519.53 739.5,518C 742.196,517.31 744.363,515.81 746,513.5C 747.246,501.89 747.913,490.224 748,478.5C 752.267,466.949 760.1,463.449 771.5,468C 778.883,475.047 781.55,483.714 779.5,494C 781.841,516.148 773.674,532.981 755,544.5C 754.667,554.5 754.333,564.5 754,574.5C 750.116,584.717 742.949,588.217 732.5,585C 727.41,582.249 724.243,578.083 723,572.5C 722.832,563.814 722.332,555.148 721.5,546.5C 707.287,540.455 697.787,530.122 693,515.5C 691.439,503.215 691.106,490.882 692,478.5C 694.451,471.88 698.951,467.546 705.5,465.5 Z"/></g>
<g><path style="opacity:0.999" fill="#28c1ca" d="M 840.5,497.5 C 867.87,500.375 883.203,515.541 886.5,543C 884.156,564.038 873.156,578.372 853.5,586C 830.531,590.264 813.031,582.43 801,562.5C 790.876,531.581 801.043,510.415 831.5,499C 834.695,498.819 837.695,498.319 840.5,497.5 Z M 836.5,530.5 C 850.156,528.99 855.656,534.99 853,548.5C 849.345,555.07 843.845,557.237 836.5,555C 829.262,551.345 826.762,545.512 829,537.5C 830.767,534.228 833.267,531.895 836.5,530.5 Z"/></g>
<g><path style="opacity:0.999" fill="#28c1ca" d="M 923.5,497.5 C 931.356,498.181 936.856,502.181 940,509.5C 940.333,522.167 940.667,534.833 941,547.5C 942.077,550.913 944.244,553.413 947.5,555C 951.5,555.667 955.5,555.667 959.5,555C 960.667,553.833 961.833,552.667 963,551.5C 964.262,537.555 964.929,523.555 965,509.5C 969.181,499.658 976.348,496.158 986.5,499C 992.297,502.091 995.464,506.924 996,513.5C 997.051,528.257 996.384,542.924 994,557.5C 984.329,581.255 966.829,590.755 941.5,586C 923.053,579.611 912.219,566.778 909,547.5C 908.333,535.5 908.333,523.5 909,511.5C 911.124,503.874 915.957,499.207 923.5,497.5 Z"/></g>
<g><path style="opacity:0.998" fill="#28c1ca" d="M 1063.5,498.5 C 1072.31,496.935 1079.48,499.601 1085,506.5C 1088.27,514.771 1086.44,521.605 1079.5,527C 1074,529.168 1068.34,530.835 1062.5,532C 1057.55,535.066 1055.05,539.566 1055,545.5C 1054.93,556.572 1054.27,567.572 1053,578.5C 1044.38,588.785 1035.38,589.118 1026,579.5C 1025.14,577.913 1024.47,576.246 1024,574.5C 1023.09,560.786 1023.43,547.119 1025,533.5C 1031.7,514.96 1044.53,503.294 1063.5,498.5 Z"/></g>
<g><path style="opacity:0.998" fill="#28c1ca" d="M 1310.5,497.5 C 1337.91,500.406 1353.24,515.573 1356.5,543C 1354.16,564.026 1343.16,578.359 1323.5,586C 1298.04,590.352 1279.87,580.852 1269,557.5C 1262.68,528.485 1273.51,508.985 1301.5,499C 1304.69,498.819 1307.69,498.319 1310.5,497.5 Z M 1305.5,530.5 C 1319.66,528.489 1325.49,534.489 1323,548.5C 1319.34,555.07 1313.84,557.237 1306.5,555C 1299.26,551.345 1296.76,545.512 1299,537.5C 1300.69,534.642 1302.86,532.309 1305.5,530.5 Z"/></g>
<g><path style="opacity:0.998" fill="#28c1ca" d="M 1418.5,497.5 C 1451.24,501.999 1466.08,520.666 1463,553.5C 1461.63,557.733 1460.13,561.899 1458.5,566C 1474.12,602.428 1462.12,622.094 1422.5,625C 1412.02,636.634 1402.18,636.134 1393,623.5C 1392.36,621.238 1391.52,619.071 1390.5,617C 1398.17,597.654 1412.5,589.32 1433.5,592C 1435.04,588.587 1433.87,586.754 1430,586.5C 1404.7,590.015 1387.03,580.015 1377,556.5C 1371.45,531.103 1380.28,512.603 1403.5,501C 1408.55,499.425 1413.55,498.259 1418.5,497.5 Z M 1414.5,530.5 C 1427.3,528.477 1433.14,533.81 1432,546.5C 1429.08,554.045 1423.58,556.879 1415.5,555C 1407.16,551.318 1404.66,545.151 1408,536.5C 1409.49,533.686 1411.66,531.686 1414.5,530.5 Z"/></g>
<g><path style="opacity:0.998" fill="#28c1ca" d="M 1527.5,497.5 C 1554.92,500.418 1570.25,515.584 1573.5,543C 1570.2,569.8 1555.2,584.633 1528.5,587.5C 1501.19,584.856 1486.19,569.856 1483.5,542.5C 1486.8,516.204 1501.46,501.204 1527.5,497.5 Z M 1523.5,530.5 C 1537.55,528.716 1543.05,534.716 1540,548.5C 1536.34,555.07 1530.84,557.237 1523.5,555C 1515.12,550 1513.29,543.167 1518,534.5C 1519.81,533.023 1521.65,531.69 1523.5,530.5 Z"/></g>
</svg>
